<?xml version="1.0" encoding="UTF-8" standalone="no"?>
<svg
   xmlns:dc="http://purl.org/dc/elements/1.1/"
   xmlns:cc="http://creativecommons.org/ns#"
   xmlns:rdf="http://www.w3.org/1999/02/22-rdf-syntax-ns#"
   xmlns:svg="http://www.w3.org/2000/svg"
   xmlns="http://www.w3.org/2000/svg"
   xmlns:sodipodi="http://sodipodi.sourceforge.net/DTD/sodipodi-0.dtd"
   xmlns:inkscape="http://www.inkscape.org/namespaces/inkscape"
   width="24px"
   height="24px"
   viewBox="0 0 24 24"
   version="1.1"
   id="svg12"
   sodipodi:docname="icon-commit-graph.svg"
   inkscape:version="0.92.2 5c3e80d, 2017-08-06">
  <metadata
     id="metadata16">
    <rdf:RDF>
      <cc:Work
         rdf:about="">
        <dc:format>image/svg+xml</dc:format>
        <dc:type
           rdf:resource="http://purl.org/dc/dcmitype/StillImage" />
        <dc:title>icon/20px/branches</dc:title>
      </cc:Work>
    </rdf:RDF>
  </metadata>
  <sodipodi:namedview
     pagecolor="#ffffff"
     bordercolor="#666666"
     borderopacity="1"
     objecttolerance="10"
     gridtolerance="10"
     guidetolerance="10"
     inkscape:pageopacity="0"
     inkscape:pageshadow="2"
     inkscape:window-width="2560"
     inkscape:window-height="1395"
     id="namedview14"
     showgrid="false"
     inkscape:zoom="14.897651"
     inkscape:cx="-1.459738"
     inkscape:cy="7.8130422"
     inkscape:window-x="0"
     inkscape:window-y="1"
     inkscape:window-maximized="1"
     inkscape:current-layer="icon/20px/branches" />
  <!-- Generator: Sketch 43.2 (39069) - http://www.bohemiancoding.com/sketch -->
  <title
     id="title2">icon/20px/branches</title>
  <desc
     id="desc4">Created with Sketch.</desc>
  <defs
     id="defs6" />
  <g
     style="fill:#707070;fill-rule:evenodd;stroke:none;stroke-width:1"
     id="icon/20px/branches"
     transform="rotate(180,12,12)">
    <path
       d="m 10.624894,13.758615 c 3.532404,0.04958 7.2,-1.286884 7.2,-4.7999988 V 7.5186145 l -0.02935,-4.4259258 -2.390938,5.3e-6 0.02028,4.4259205 v 1.4400017 c 0,2.2024858 -2.945478,2.4096598 -4.8,2.3999988 m 2.41242,6.341448 c 0.08621,-1.674936 -1.323934,-3.109285 -2.403934,-3.469285 v -0.24 -7.199999 -0.24 l 0.01631,-3.4591559 -2.3413591,0.010836 0.045047,3.4483217 v 0.24 7.1999992 0.24 c -1.44,0.48 -2.4,1.56 -2.4,3.36 0,1.8 1.56,3.6 3.5999999,3.6 1.5600002,0 3.5740922,-1.654092 3.4839442,-3.490715 M 9.5533698,18.79078 c -0.7199999,0 -1.1999999,-0.48 -1.1999999,-1.2 0,-0.72 0.48,-1.2 1.1999999,-1.2 0.7200002,0 1.2000002,0.48 1.2000002,1.2 0,0.72 -0.48,1.2 -1.2000002,1.2 z"
       id="Shape"
       inkscape:connector-curvature="0"
       sodipodi:nodetypes="csccccscccccccccccczscsssss"
       style="stroke-width:1.20000005" />
  </g>
</svg>
